<svg xmlns="http://www.w3.org/2000/svg" xmlns:xlink="http://www.w3.org/1999/xlink" width="96" zoomAndPan="magnify" viewBox="0 0 72 72" height="96" preserveAspectRatio="xMidYMid meet" version="1.0"><defs><g/><clipPath id="b76420b28b"><rect x="0" width="13" y="0" height="12"/></clipPath><clipPath id="a8b60b270a"><rect x="0" width="13" y="0" height="12"/></clipPath><clipPath id="2a8682fca1"><rect x="0" width="12" y="0" height="12"/></clipPath><clipPath id="e67bc2ac49"><rect x="0" width="11" y="0" height="12"/></clipPath></defs><path fill="#008000" d="M 37.128906 25.003906 C 26.359375 24.953125 17.09375 26.664062 15.757812 26.832031 C 13.617188 27.101562 12.917969 28.574219 12.917969 28.574219 L 8.777344 37.652344 C 9.507812 37.566406 10.449219 37.449219 11.570312 37.3125 C 11.824219 20.082031 55.300781 26.738281 56.757812 27.707031 C 50.597656 25.699219 43.59375 25.03125 37.128906 25.003906 Z M 37.128906 25.003906 " fill-opacity="1" fill-rule="nonzero"/><path fill="#008000" d="M 27.46875 27.402344 C 27.46875 27.402344 38.753906 25.464844 56.601562 28.664062 C 56.433594 28.496094 60.054688 31.527344 61.992188 37.757812 C 61.90625 37.675781 13.914062 33.550781 0.0234375 44.410156 C 0.273438 44.074219 6 38.097656 23.175781 36.582031 C 40.351562 35.066406 60.8125 39.023438 58.371094 33.210938 C 55.929688 27.402344 42.625 27.402344 27.46875 27.402344 Z M 27.46875 27.402344 " fill-opacity="1" fill-rule="nonzero"/><path fill="#008000" d="M 9.03125 37.570312 L 7.578125 38.917969 C 7.578125 38.917969 6.609375 37.675781 3.304688 37.800781 C 0 37.925781 1.8125 34.265625 3.769531 34.222656 C 5.726562 34.179688 7.621094 33.84375 7.472656 34.855469 C 7.324219 35.863281 7.304688 37.191406 7.011719 37.316406 C 6.714844 37.445312 7.03125 34.433594 4.589844 34.898438 C 2.148438 35.359375 2.632812 36.347656 3.242188 36.582031 C 3.851562 36.8125 4.738281 36.222656 5.472656 37.085938 C 6.210938 37.949219 8.378906 38.410156 9.03125 37.570312 Z M 9.03125 37.570312 " fill-opacity="1" fill-rule="nonzero"/><path fill="#008000" d="M 61.839844 37.71875 L 63.292969 39.066406 C 63.292969 39.066406 64.261719 37.824219 67.566406 37.949219 C 70.871094 38.074219 69.0625 34.414062 67.105469 34.371094 C 65.144531 34.328125 63.25 33.992188 63.398438 35.003906 C 63.546875 36.011719 63.566406 37.339844 63.863281 37.464844 C 64.15625 37.59375 63.839844 34.582031 66.28125 35.042969 C 68.726562 35.507812 68.242188 36.496094 67.628906 36.730469 C 67.019531 36.960938 66.136719 36.371094 65.398438 37.234375 C 64.664062 38.097656 62.496094 38.558594 61.839844 37.71875 Z M 61.839844 37.71875 " fill-opacity="1" fill-rule="nonzero"/><path fill="#008000" d="M 38.144531 37.925781 C 29.964844 37.957031 21.019531 38.851562 11.148438 41.84375 L 11.164062 41.839844 C 26.347656 38.203125 43.890625 38.277344 56.488281 39.191406 C 56.449219 39.191406 56.429688 39.191406 56.386719 39.195312 C 54.699219 39.28125 53.675781 39.53125 51.429688 39.730469 C 49.183594 39.929688 46.921875 40.1875 45.183594 40.5 C 44.316406 40.65625 43.578125 40.828125 43.03125 41.011719 C 42.757812 41.105469 42.53125 41.203125 42.359375 41.3125 C 42.1875 41.417969 42.0625 41.53125 42.007812 41.679688 C 41.957031 41.832031 42.023438 41.996094 42.152344 42.113281 C 58.121094 51.917969 69.011719 33.324219 71.636719 45.9375 C 71.761719 45.925781 71.882812 45.917969 72 45.917969 C 71.464844 42.132812 69.511719 41.199219 68.75 39.925781 C 68.511719 39.527344 68.195312 39.34375 67.871094 39.3125 C 67.546875 39.285156 67.230469 39.402344 66.945312 39.554688 C 64.855469 41.121094 62.3125 42.101562 59.875 42.5625 C 57.34375 43.019531 54.476562 43.203125 51.796875 43.203125 C 38.917969 40.882812 54.078125 39.851562 60.539062 39.226562 C 53.734375 38.742188 46.324219 37.898438 38.144531 37.925781 Z M 38.144531 37.925781 " fill-opacity="1" fill-rule="nonzero"/><g transform="matrix(1, 0, 0, 1, 8, 39)"><g clip-path="url(#b76420b28b)"><g fill="#383e48" fill-opacity="1"><g transform="translate(0.676618, 9.087178)"><g><path d="M 6.59375 0 L 6.578125 -3.84375 L 4.703125 -0.671875 L 4.03125 -0.671875 L 2.15625 -3.765625 L 2.15625 0 L 0.765625 0 L 0.765625 -6.40625 L 1.984375 -6.40625 L 4.390625 -2.421875 L 6.75 -6.40625 L 7.96875 -6.40625 L 7.984375 0 Z M 6.59375 0 "/></g></g></g></g></g><g transform="matrix(1, 0, 0, 1, 17, 39)"><g clip-path="url(#a8b60b270a)"><g fill="#383e48" fill-opacity="1"><g transform="translate(0.800672, 9.087178)"><g><path d="M 6.59375 0 L 6.578125 -3.84375 L 4.703125 -0.671875 L 4.03125 -0.671875 L 2.15625 -3.765625 L 2.15625 0 L 0.765625 0 L 0.765625 -6.40625 L 1.984375 -6.40625 L 4.390625 -2.421875 L 6.75 -6.40625 L 7.96875 -6.40625 L 7.984375 0 Z M 6.59375 0 "/></g></g></g></g></g><g transform="matrix(1, 0, 0, 1, 26, 39)"><g clip-path="url(#2a8682fca1)"><g fill="#383e48" fill-opacity="1"><g transform="translate(0.867595, 9.087178)"><g><path d="M 0.765625 -6.40625 L 3.671875 -6.40625 C 4.367188 -6.40625 4.984375 -6.269531 5.515625 -6 C 6.046875 -5.738281 6.457031 -5.367188 6.75 -4.890625 C 7.050781 -4.410156 7.203125 -3.847656 7.203125 -3.203125 C 7.203125 -2.566406 7.050781 -2.003906 6.75 -1.515625 C 6.457031 -1.035156 6.046875 -0.660156 5.515625 -0.390625 C 4.984375 -0.128906 4.367188 0 3.671875 0 L 0.765625 0 Z M 3.59375 -1.21875 C 4.238281 -1.21875 4.75 -1.394531 5.125 -1.75 C 5.507812 -2.101562 5.703125 -2.585938 5.703125 -3.203125 C 5.703125 -3.816406 5.507812 -4.300781 5.125 -4.65625 C 4.75 -5.007812 4.238281 -5.1875 3.59375 -5.1875 L 2.25 -5.1875 L 2.25 -1.21875 Z M 3.59375 -1.21875 "/></g></g></g></g></g><g transform="matrix(1, 0, 0, 1, 34, 39)"><g clip-path="url(#e67bc2ac49)"><g fill="#383e48" fill-opacity="1"><g transform="translate(0.586772, 9.087178)"><g><path d="M 4.84375 0 L 3.609375 -1.78125 L 2.25 -1.78125 L 2.25 0 L 0.765625 0 L 0.765625 -6.40625 L 3.53125 -6.40625 C 4.101562 -6.40625 4.597656 -6.3125 5.015625 -6.125 C 5.429688 -5.9375 5.75 -5.664062 5.96875 -5.3125 C 6.195312 -4.96875 6.3125 -4.554688 6.3125 -4.078125 C 6.3125 -3.609375 6.195312 -3.195312 5.96875 -2.84375 C 5.738281 -2.5 5.414062 -2.238281 5 -2.0625 L 6.4375 0 Z M 4.8125 -4.078125 C 4.8125 -4.441406 4.695312 -4.71875 4.46875 -4.90625 C 4.238281 -5.101562 3.898438 -5.203125 3.453125 -5.203125 L 2.25 -5.203125 L 2.25 -2.96875 L 3.453125 -2.96875 C 3.898438 -2.96875 4.238281 -3.0625 4.46875 -3.25 C 4.695312 -3.445312 4.8125 -3.722656 4.8125 -4.078125 Z M 4.8125 -4.078125 "/></g></g></g></g></g></svg>